<?xml version="1.0" encoding="utf-8"?>
<!-- Generator: Adobe Illustrator 16.0.0, SVG Export Plug-In . SVG Version: 6.00 Build 0)  -->
<!DOCTYPE svg PUBLIC "-//W3C//DTD SVG 1.1 Tiny//EN" "http://www.w3.org/Graphics/SVG/1.1/DTD/svg11-tiny.dtd">
<svg version="1.1" baseProfile="tiny" id="Layer_1" xmlns="http://www.w3.org/2000/svg" xmlns:xlink="http://www.w3.org/1999/xlink"
	 x="0px" y="0px" width="1300px" height="289.081px" viewBox="0 0 1300 289.081" xml:space="preserve">
<g>
	<g>
		<path fill="#F4442E" d="M362.182,148.499c0-13.784,4.385-25.062,13.158-33.835c8.772-8.773,20.05-13.158,33.835-13.158
			c13.784,0,24.75,4.385,32.896,13.158c8.145,8.772,12.218,20.051,12.218,33.835v9.399h-64.851c0.626,5.013,2.82,8.929,6.579,11.748
			s8.145,4.229,13.158,4.229c8.772,0,16.604-2.506,23.497-7.519l15.038,15.037c-6.893,9.399-19.737,14.099-38.535,14.099
			c-13.785,0-25.063-4.386-33.835-13.158C366.567,173.562,362.182,162.283,362.182,148.499z M422.333,127.353
			c-3.759-2.82-8.146-4.229-13.158-4.229c-5.013,0-9.399,1.409-13.158,4.229c-3.759,2.819-5.639,6.734-5.639,11.748h37.595
			C427.973,134.087,426.093,130.172,422.333,127.353z"/>
		<path fill="#F4442E" d="M489.662,146.525l-30.452-44.832h26.692l17.2,25.189l17.2-25.189h26.692l-30.452,44.832l33.459,48.968
			h-26.975l-19.925-29.324l-19.925,29.324h-26.974L489.662,146.525z"/>
		<path fill="#F4442E" d="M556.427,234.968V104.231l26.316-2.819v7.519c7.017-5.014,13.91-7.519,20.677-7.519
			c14.411,0,25.846,4.699,34.305,14.098s12.688,20.363,12.688,32.896s-4.229,23.497-12.688,32.896s-19.894,14.098-34.305,14.098
			c-9.399-0.625-16.292-3.163-20.677-7.612v47.275L556.427,234.968z M582.744,139.946v15.226
			c1.253,10.527,7.832,16.698,19.737,18.516c15.038-1.189,23.497-8.99,25.376-23.402c-0.627-17.544-9.086-26.631-25.376-27.256
			C590.576,124.908,583.997,130.548,582.744,139.946z"/>
		<path fill="#F4442E" d="M653.644,148.499c0-13.784,4.386-25.062,13.158-33.835c8.772-8.773,20.05-13.158,33.836-13.158
			c13.784,0,24.749,4.385,32.896,13.158c8.145,8.772,12.219,20.051,12.219,33.835v9.399H680.9c0.625,5.013,2.819,8.929,6.578,11.748
			c3.76,2.819,8.146,4.229,13.159,4.229c8.771,0,16.604-2.506,23.497-7.519l15.038,15.037c-6.894,9.399-19.737,14.099-38.535,14.099
			c-13.786,0-25.063-4.386-33.836-13.158C658.029,173.562,653.644,162.283,653.644,148.499z M713.796,127.353
			c-3.76-2.82-8.146-4.229-13.158-4.229c-5.014,0-9.399,1.409-13.159,4.229c-3.759,2.819-5.639,6.734-5.639,11.748h37.596
			C719.436,134.087,717.556,130.172,713.796,127.353z"/>
		<path fill="#F4442E" d="M780.09,111.844c6.704-6.893,14.881-10.338,24.531-10.338c3.069,0,5.982,0.25,8.74,0.752l-4.135,25.94
			c-3.071-2.758-7.457-4.229-13.158-4.417c-6.392,0.438-11.718,5.074-15.979,13.91v57.802h-26.316v-91.262l26.316-2.819V111.844z"/>
		<path fill="#F4442E" d="M822.889,69.501c2.506-2.538,5.889-3.806,10.15-3.806c4.512,0,8.02,1.269,10.526,3.806
			c2.506,2.538,3.76,5.686,3.76,9.446c0,3.759-1.254,6.894-3.76,9.399c-2.507,2.506-5.953,3.76-10.338,3.76
			c-4.387,0-7.833-1.254-10.339-3.76c-2.507-2.505-3.76-5.64-3.76-9.399C819.129,75.188,820.382,72.039,822.889,69.501z
			 M846.386,195.493v-94.081h-26.316v94.081H846.386z"/>
		<path fill="#F4442E" d="M853.749,148.499c0-13.784,4.386-25.062,13.158-33.835c8.773-8.773,20.052-13.158,33.836-13.158
			s24.751,4.385,32.896,13.158c8.145,8.772,12.219,20.051,12.219,33.835v9.399h-64.852c0.626,5.013,2.819,8.929,6.579,11.748
			s8.145,4.229,13.158,4.229c8.772,0,16.604-2.506,23.497-7.519l15.037,15.037c-6.893,9.399-19.736,14.099-38.534,14.099
			c-13.784,0-25.062-4.386-33.836-13.158C858.135,173.562,853.749,162.283,853.749,148.499z M913.901,127.353
			c-3.76-2.82-8.145-4.229-13.158-4.229s-9.398,1.409-13.158,4.229c-3.76,2.819-5.64,6.734-5.64,11.748h37.596
			C919.541,134.087,917.661,130.172,913.901,127.353z"/>
		<path fill="#F4442E" d="M982.265,135.717v59.776h-26.317v-91.262l26.317-2.819v8.553c6.329-5.64,13.848-8.459,22.557-8.459
			c11.904,0,20.991,3.604,27.256,10.809c6.266,7.205,9.399,15.508,9.399,24.906v58.272h-26.316V143.8
			c0-6.265-1.566-11.122-4.7-14.567c-3.133-3.446-7.862-5.264-14.191-5.451C990.817,124.156,986.149,128.137,982.265,135.717z"/>
		<path fill="#F4442E" d="M1062.281,183.744c-9.398-7.832-14.098-18.014-14.098-30.545V143.8c0-12.532,4.699-22.713,14.098-30.546
			c9.399-7.833,20.396-11.748,32.99-11.748c15.037,0,27.538,5.325,37.5,15.978l-18.797,14.099c-5.64-5.64-11.905-8.459-18.798-8.459
			c-6.266,0-11.748,2.506-16.447,7.519c-4.699,5.014-7.049,10.965-7.049,17.857c0,6.894,2.192,12.845,6.579,17.858
			c4.385,5.013,10.024,7.519,16.917,7.519s13.158-2.819,18.798-8.459l18.797,14.099c-10.025,10.652-22.557,15.978-37.595,15.978
			C1082.645,195.493,1071.681,191.578,1062.281,183.744z"/>
		<path fill="#F4442E" d="M1143.803,69.501c2.506-2.538,5.889-3.806,10.15-3.806c4.512,0,8.019,1.269,10.526,3.806
			c2.506,2.538,3.76,5.686,3.76,9.446c0,3.759-1.254,6.894-3.76,9.399c-2.508,2.506-5.953,3.76-10.338,3.76
			c-4.388,0-7.833-1.254-10.339-3.76c-2.508-2.505-3.76-5.64-3.76-9.399C1140.043,75.188,1141.295,72.039,1143.803,69.501z
			 M1167.3,195.493v-94.081h-26.316v94.081H1167.3z"/>
		<path fill="#F4442E" d="M1181.432,112.784c11.904-7.519,25.688-11.278,41.354-11.278c11.278,0,20.207,3.134,26.786,9.398
			c6.579,6.266,9.869,15.664,9.869,28.196v56.393h-26.316v-7.52c-7.646,5.014-14.538,7.52-20.678,7.52
			c-12.532,0-21.931-2.664-28.196-7.989c-6.267-5.325-9.398-12.688-9.398-22.087c0-8.772,2.961-16.604,8.882-23.497
			c5.921-6.893,15.491-10.338,28.713-10.338c6.077,0,12.971,1.879,20.678,5.639v-2.819c-0.126-6.894-5.14-10.653-15.038-11.278
			c-11.278,0-20.052,1.879-26.316,5.639L1181.432,112.784z M1233.125,167.297v-10.621c-2.508-4.825-8.459-7.236-17.857-7.236
			c-11.279,1.254-17.232,5.639-17.858,13.158c0.626,7.457,6.579,11.498,17.858,12.124
			C1224.666,174.722,1230.617,172.246,1233.125,167.297z"/>
	</g>
	<g>
		<path fill="#020122" d="M144.279,21.95c0,0,1.98,0.095,5.692,0.272c1.223,0.096,2.588,0.204,4.091,0.322
			c0.749,0.065,1.533,0.134,2.35,0.206c0.842,0.064,1.551,0.196,2.378,0.299c1.613,0.233,3.347,0.447,5.186,0.757
			c1.83,0.353,3.775,0.727,5.83,1.121c8.171,1.763,17.921,4.788,28.338,9.778c10.408,4.974,21.39,12.105,31.678,21.628
			c10.221,9.569,19.689,21.608,26.784,35.798c7.113,14.148,11.771,30.447,12.826,47.414c0.063,1.058,0.126,2.119,0.189,3.183
			c0.04,1.062,0.034,2.13,0.051,3.196c0.009,1.065,0.018,2.131,0.027,3.201l0.001,0.201c0.009,0.871-0.002,0.342-0.002,0.581
			l-0.017,0.351l-0.033,0.698l-0.065,1.399l-0.131,2.809c-0.094,1.137-0.188,2.275-0.282,3.416
			c-0.105,1.136-0.211,2.276-0.317,3.417l-0.455,3.218c-1.247,8.58-3.427,17.105-6.521,25.316
			c-6.191,16.437-16.174,31.492-28.699,43.666c-12.59,12.119-27.712,21.354-43.719,26.786c-8.002,2.712-16.196,4.513-24.341,5.421
			l-3.048,0.329l-3.048,0.19l-3.032,0.168l-3.024,0.026c-1.08,0.004-2.158,0.006-3.234,0.011l-2.787-0.144
			c-0.927-0.047-1.852-0.094-2.775-0.141l-0.692-0.036l-0.762-0.075l-1.524-0.156c-1.013-0.106-2.023-0.214-3.032-0.32
			c-1.011-0.101-2.013-0.214-2.962-0.393c-1.925-0.331-3.841-0.628-5.735-0.989c-1.878-0.432-3.748-0.863-5.608-1.29
			c-1.846-0.472-3.657-1.049-5.464-1.565c-7.187-2.252-13.953-5.152-20.207-8.521c-6.276-3.338-11.937-7.318-17.094-11.467
			c-2.609-2.044-4.97-4.289-7.312-6.441c-2.221-2.288-4.459-4.459-6.408-6.811c-2.051-2.258-3.834-4.654-5.613-6.95l-0.333-0.43
			c-0.011-0.013-0.206-0.269-0.158-0.214l-0.073-0.108l-0.146-0.218l-0.583-0.872c-0.387-0.579-0.772-1.155-1.155-1.728
			c-0.765-1.143-1.521-2.275-2.268-3.391c-0.384-0.538-0.723-1.153-1.062-1.758c-0.34-0.6-0.677-1.198-1.011-1.79
			c-0.666-1.183-1.322-2.35-1.969-3.501c-0.684-1.132-1.193-2.311-1.722-3.458c-0.527-1.147-1.047-2.275-1.558-3.386
			c-1.093-2.186-1.836-4.439-2.626-6.572c-0.777-2.141-1.583-4.175-2.074-6.229c-0.557-2.022-1.092-3.964-1.603-5.82
			c-0.423-1.874-0.717-3.688-1.053-5.388c-0.161-0.852-0.316-1.681-0.469-2.486c-0.075-0.401-0.15-0.799-0.224-1.188
			c-0.042-0.397-0.083-0.786-0.124-1.171c-0.16-1.533-0.309-2.971-0.448-4.308c-0.128-1.336-0.29-2.566-0.36-3.698
			c-0.023-1.136-0.044-2.17-0.063-3.093c-0.074-3.685-0.113-5.65-0.113-5.65s0.227,1.951,0.652,5.607
			c0.105,0.91,0.224,1.927,0.354,3.046c0.177,1.113,0.455,2.315,0.707,3.619c0.263,1.301,0.545,2.695,0.845,4.187
			c0.076,0.371,0.152,0.75,0.23,1.132c0.109,0.376,0.22,0.759,0.333,1.147c0.225,0.773,0.456,1.57,0.693,2.388
			c0.488,1.632,0.941,3.364,1.525,5.144c0.669,1.752,1.368,3.582,2.098,5.494c0.658,1.929,1.632,3.826,2.576,5.809
			c0.957,1.978,1.865,4.059,3.118,6.051c0.589,1.013,1.188,2.042,1.795,3.085c0.606,1.042,1.197,2.118,1.932,3.099
			c0.698,1.007,1.407,2.025,2.125,3.058c0.357,0.515,0.716,1.033,1.078,1.557c0.358,0.521,0.708,1.047,1.158,1.563
			c0.85,1.041,1.71,2.094,2.582,3.16c0.436,0.531,0.874,1.067,1.314,1.607l0.664,0.812l0.166,0.203l0.083,0.102
			c0.099,0.129-0.042-0.057,0.005-0.006l0.351,0.374c1.878,1.988,3.743,4.059,5.854,5.972c2.01,2.011,4.289,3.817,6.525,5.728
			c2.356,1.774,4.707,3.625,7.275,5.261c5.076,3.332,10.535,6.442,16.456,8.889c5.899,2.478,12.157,4.469,18.663,5.84
			c1.638,0.297,3.267,0.656,4.922,0.912c1.66,0.218,3.328,0.436,5.004,0.656c1.683,0.151,3.377,0.245,5.07,0.375
			c0.857,0.084,1.68,0.09,2.498,0.09l2.463,0.025l1.232,0.018l0.62,0.009l0.693-0.03c0.923-0.041,1.849-0.083,2.776-0.124
			l2.787-0.124c-0.048-0.002,0.356-0.008-0.065-0.006l0.161-0.018l0.323-0.034l0.645-0.065l1.29-0.135l2.583-0.268l2.573-0.399
			l2.573-0.405l2.556-0.532c6.814-1.436,13.513-3.61,19.914-6.491c12.805-5.776,24.308-14.518,33.383-25.114
			c9.013-10.663,15.578-23.145,19.053-36.074c1.734-6.466,2.736-13.023,3.038-19.507l0.111-2.424l-0.022-2.226l-0.009-2.211
			l-0.138-2.807l-0.068-1.401l-0.034-0.699l-0.017-0.348c0,0.122-0.011-0.523-0.003,0.23l-0.017-0.147l-0.26-2.362
			c-0.09-0.786-0.155-1.57-0.261-2.348l-0.375-2.317c-1.995-12.327-6.494-23.559-12.458-32.983
			c-5.958-9.452-13.336-17.083-20.911-22.896c-7.645-5.756-15.426-9.768-22.583-12.338c-7.164-2.578-13.633-3.906-18.983-4.504
			c-1.34-0.119-2.608-0.232-3.802-0.338c-1.194-0.079-2.32-0.09-3.358-0.143c-0.5-0.011-1.064-0.068-1.456-0.042
			c-0.415,0.01-0.812,0.02-1.192,0.03c-0.756,0.006-1.442,0.012-2.057,0.018c-3.646,0.175-5.59,0.268-5.59,0.268L144.279,21.95z"/>
		<path fill="#F4442E" d="M165.059,21.95c0,0,1.98,0.095,5.692,0.272c1.223,0.096,2.588,0.204,4.091,0.322
			c0.749,0.065,1.532,0.134,2.35,0.206c0.842,0.064,1.551,0.196,2.378,0.299c1.613,0.233,3.347,0.447,5.185,0.757
			c1.83,0.353,3.775,0.727,5.83,1.121c8.171,1.763,17.921,4.788,28.338,9.778c10.408,4.974,21.39,12.105,31.678,21.628
			c10.221,9.569,19.689,21.608,26.784,35.798c7.113,14.148,11.771,30.447,12.826,47.414c0.063,1.058,0.126,2.119,0.189,3.183
			c0.04,1.062,0.034,2.13,0.051,3.196c0.009,1.065,0.018,2.131,0.027,3.201l0.001,0.201c0.009,0.871-0.002,0.342-0.002,0.581
			l-0.017,0.351l-0.033,0.698l-0.065,1.399l-0.131,2.809c-0.094,1.137-0.188,2.275-0.282,3.416
			c-0.105,1.136-0.211,2.276-0.317,3.417l-0.455,3.218c-1.247,8.58-3.428,17.105-6.521,25.316
			c-6.191,16.437-16.174,31.492-28.699,43.666c-12.59,12.119-27.712,21.354-43.719,26.786c-8.002,2.712-16.196,4.513-24.341,5.421
			l-3.048,0.329l-3.048,0.19l-3.033,0.168l-3.024,0.026c-1.081,0.004-2.158,0.006-3.234,0.011l-2.787-0.144
			c-0.927-0.047-1.852-0.094-2.775-0.141l-0.692-0.036l-0.762-0.075l-1.524-0.156c-1.013-0.106-2.023-0.214-3.032-0.32
			c-1.012-0.101-2.013-0.214-2.962-0.393c-1.925-0.331-3.842-0.628-5.735-0.989c-1.878-0.432-3.748-0.863-5.608-1.29
			c-1.846-0.472-3.657-1.049-5.464-1.565c-7.187-2.252-13.953-5.152-20.207-8.521c-6.276-3.338-11.937-7.318-17.094-11.467
			c-2.609-2.044-4.97-4.289-7.312-6.441c-2.221-2.288-4.459-4.459-6.408-6.811c-2.051-2.258-3.834-4.654-5.613-6.95l-0.333-0.43
			c-0.011-0.013-0.206-0.269-0.158-0.214l-0.073-0.108l-0.146-0.218l-0.583-0.872c-0.387-0.579-0.772-1.155-1.155-1.728
			c-0.765-1.143-1.521-2.275-2.268-3.391c-0.384-0.538-0.723-1.153-1.062-1.758c-0.34-0.6-0.677-1.198-1.012-1.79
			c-0.665-1.183-1.321-2.35-1.968-3.501c-0.684-1.132-1.193-2.311-1.722-3.458c-0.527-1.147-1.047-2.275-1.558-3.386
			c-1.093-2.186-1.836-4.439-2.626-6.572c-0.777-2.141-1.583-4.175-2.074-6.229c-0.558-2.022-1.092-3.964-1.603-5.82
			c-0.423-1.874-0.717-3.688-1.053-5.388c-0.161-0.852-0.316-1.681-0.469-2.486c-0.075-0.401-0.15-0.799-0.224-1.188
			c-0.042-0.397-0.083-0.786-0.124-1.171c-0.16-1.533-0.309-2.971-0.448-4.308c-0.128-1.336-0.29-2.566-0.36-3.698
			c-0.023-1.136-0.044-2.17-0.063-3.093c-0.074-3.685-0.114-5.65-0.114-5.65s0.227,1.951,0.653,5.607
			c0.105,0.91,0.224,1.927,0.354,3.046c0.177,1.113,0.455,2.315,0.707,3.619c0.263,1.301,0.545,2.695,0.845,4.187
			c0.076,0.371,0.152,0.75,0.23,1.132c0.109,0.376,0.22,0.759,0.333,1.147c0.224,0.773,0.456,1.57,0.693,2.388
			c0.488,1.632,0.941,3.364,1.525,5.144c0.669,1.752,1.368,3.582,2.098,5.494c0.658,1.929,1.632,3.826,2.576,5.809
			c0.957,1.978,1.865,4.059,3.118,6.051c0.589,1.013,1.188,2.042,1.795,3.085c0.606,1.042,1.197,2.118,1.932,3.099
			c0.698,1.007,1.407,2.025,2.125,3.058c0.357,0.515,0.716,1.033,1.078,1.557c0.358,0.521,0.708,1.047,1.158,1.563
			c0.85,1.041,1.71,2.094,2.582,3.16c0.436,0.531,0.874,1.067,1.314,1.607l0.664,0.812l0.166,0.203l0.083,0.102
			c0.099,0.129-0.042-0.057,0.005-0.006l0.352,0.374c1.877,1.988,3.743,4.059,5.854,5.972c2.01,2.011,4.289,3.817,6.524,5.728
			c2.356,1.774,4.707,3.625,7.276,5.261c5.076,3.332,10.535,6.442,16.456,8.889c5.899,2.478,12.157,4.469,18.663,5.84
			c1.638,0.297,3.267,0.656,4.922,0.912c1.66,0.218,3.328,0.436,5.004,0.656c1.683,0.151,3.377,0.245,5.07,0.375
			c0.857,0.084,1.68,0.09,2.498,0.09l2.463,0.025l1.232,0.018l0.62,0.009l0.692-0.03c0.923-0.041,1.85-0.083,2.776-0.124
			l2.787-0.124c-0.048-0.002,0.356-0.008-0.065-0.006l0.161-0.018l0.323-0.034l0.645-0.065l1.29-0.135l2.583-0.268l2.572-0.399
			l2.573-0.405l2.556-0.532c6.814-1.436,13.513-3.61,19.914-6.491c12.805-5.776,24.308-14.518,33.383-25.114
			c9.013-10.663,15.578-23.145,19.053-36.074c1.734-6.466,2.736-13.023,3.038-19.507l0.111-2.424l-0.022-2.226l-0.009-2.211
			l-0.138-2.807l-0.068-1.401l-0.034-0.699l-0.017-0.348c-0.001,0.122-0.011-0.523-0.003,0.23l-0.017-0.147l-0.26-2.362
			c-0.09-0.786-0.155-1.57-0.261-2.348l-0.375-2.317c-1.995-12.327-6.494-23.559-12.458-32.983
			c-5.958-9.452-13.336-17.083-20.91-22.896c-7.645-5.756-15.426-9.768-22.583-12.338c-7.164-2.578-13.633-3.906-18.983-4.504
			c-1.34-0.119-2.608-0.232-3.802-0.338c-1.194-0.079-2.32-0.09-3.358-0.143c-0.5-0.011-1.064-0.068-1.456-0.042
			c-0.414,0.01-0.812,0.02-1.192,0.03c-0.755,0.006-1.442,0.012-2.056,0.018c-3.646,0.175-5.59,0.268-5.59,0.268L165.059,21.95z"/>
	</g>
</g>
</svg>
