<?xml version="1.0" encoding="utf-8"?>
<!-- Generator: Adobe Illustrator 16.0.0, SVG Export Plug-In . SVG Version: 6.00 Build 0)  -->
<!DOCTYPE svg PUBLIC "-//W3C//DTD SVG 1.1//EN" "http://www.w3.org/Graphics/SVG/1.1/DTD/svg11.dtd">
<svg version="1.1" id="Layer_1" xmlns="http://www.w3.org/2000/svg" xmlns:xlink="http://www.w3.org/1999/xlink" x="0px" y="0px"
	 width="430px" height="680px" viewBox="0 0 430 680" enable-background="new 0 0 430 680" xml:space="preserve">
<g>
	<circle fill="#1FC4FF" cx="169.112" cy="527.547" r="127.074"/>
	<g>
		<path fill="#4A9DD6" d="M215.629,315.955c0,0-10.378,96.471,34.05,182.143c12.854,24.785,17.081-13.623,17.081-13.623
			s24.497,71.737,58.314,72.417c13.53,0.28,1.484-44.52,1.484-44.52s10.636,52.376,37.693,52.924
			c27.054,0.544-8.759-83.374-8.759-83.374s16.004,13.051,25.648,8.123c9.646-4.924-51.012-85.622-85.819-190.638
			C260.521,194.406,215.629,315.955,215.629,315.955z"/>
		<path fill="#438DBF" d="M381.143,490.045c4.337-2.211-5.564-19.785-20.918-47.978c0.24,10.004-0.262,24.363-4.957,26.372
			c-7.301,3.125-19.512-21.539-19.512-21.539s15.519,61.108,5.853,64.918c-9.664,3.8-23.997-33.581-23.997-33.581
			s9.047,29.683-6.632,35.727c-15.684,6.043-44.551-67.627-44.551-67.627s-4.021,21.649-17.813,23.561
			c-5.279,0.74-11.088-5.351-16.253-13.144c4.562,13.761,10.236,27.686,17.317,41.344c12.854,24.785,17.081-13.623,17.081-13.623
			s24.497,71.737,58.314,72.417c10.57,0.223,5.528-27.08,2.818-39.029c3.592,13.435,14.717,46.997,36.359,47.434
			c27.054,0.544-8.759-83.374-8.759-83.374S371.498,494.973,381.143,490.045z"/>
		<path fill="#915629" d="M51.721,354.927c0,0,133.535,32.496,179.071,41.057c45.54,8.56,126.765,22.936,130.345,24.952
			c3.579,2.021-1.54,9.028,2.806,11.215c4.351,2.186,4.857,7.28,7.156,11.524c2.298,4.242-0.647,8.592-0.647,8.592
			s-297.65-64.725-302.895-66.479c-5.243-1.747-4.471-7.204-8.176-8.626c-3.711-1.423-4.606-0.99-6.906-7.1
			c-2.297-6.114-7.418-2.852-8.18-6.758C43.526,359.399,48.392,355.456,51.721,354.927z"/>
		<path fill="#78451D" d="M357.923,439.589c-2.688-0.578-32.874-3.964-42.85-6.109c-9.979-2.15-231.906-51.196-238.432-52.599
			c-6.519-1.403-7.408-8.462-12.527-8.941c-5.119-0.474-11.64-1.877-11.64-1.877c2.299,6.109,3.194,5.677,6.906,7.1
			c3.705,1.422,2.933,6.879,8.176,8.626c5.245,1.754,302.895,66.479,302.895,66.479s2.945-4.35,0.647-8.592
			c-2.299-4.244-2.806-9.339-7.156-11.524C360.486,435.146,360.611,440.17,357.923,439.589z"/>
		<path fill="#FDC56F" d="M162.179,376.637c-8.943,0.747-23.248,17.979-20.396,29.376c0.813,3.262,5.305,6.933,8.16,3.668
			c0,0,4.485,6.937,8.565,5.304c4.08-1.63,5.304-3.267,5.304-3.267s1.225,5.305,5.305,4.899c4.08-0.407,3.672-22.031,12.645-28.152
			C181.761,388.465,171.971,375.819,162.179,376.637z"/>
		<path fill="#FBB14E" d="M167.494,416.424c0.49,0.162,1.015,0.257,1.622,0.193c4.08-0.407,3.672-22.031,12.645-28.152
			c0,0-9.79-12.646-19.582-11.828c-4.312,0.356-9.855,4.565-14.137,10.09c2.75-1.684,5.811-3.118,6.897-2.033
			c2.141,2.145-4.59,10.397-4.59,16.519c0,0,8.261-12.544,11.626-9.483c3.366,3.063,1.225,11.326,1.225,11.326
			s4.284-8.263,7.034-6.733c2.756,1.533,0,11.323-0.303,14.071C169.752,412,168.832,414.432,167.494,416.424z"/>
		<path fill="#FDC56F" d="M214.711,387.639c-8.604,2.549-19.11,22.321-14.005,32.904c1.463,3.033,6.599,5.716,8.734,1.938
			c0,0,5.805,5.881,9.464,3.456c3.666-2.425,4.528-4.273,4.528-4.273s2.279,4.942,6.19,3.72c3.913-1.232-0.877-22.319,6.667-30.142
			C236.29,395.242,224.137,384.855,214.711,387.639z"/>
		<path fill="#FBB14E" d="M228.001,425.521c0.506,0.054,1.039,0.046,1.622-0.144c3.913-1.227-0.877-22.319,6.667-30.136
			c0,0-12.153-10.387-21.579-7.604c-4.147,1.233-8.724,6.474-11.791,12.752c2.349-2.211,5.049-4.232,6.336-3.39
			c2.534,1.661-2.379,11.117-1.136,17.109c0,0,5.541-13.96,9.46-11.651c3.915,2.314,3.495,10.842,3.495,10.842
			s2.514-8.96,5.524-8.02c3.004,0.937,2.3,11.079,2.557,13.843C229.312,420.726,228.9,423.297,228.001,425.521z"/>
		<path fill="#1FC4FF" d="M116.054,80.29c9.983-33.424,65.78-56.651,115.94-23.854c50.159,32.786,93.31,236.974,73.436,293.938
			c-19.876,56.961-151.812,61.19-171.484,3.611c-19.67-57.576,0.807-137.302,3.47-178.498
			C140.082,134.29,116.054,80.29,116.054,80.29z"/>
		<path fill="#1793BF" d="M305.43,350.373c19.874-56.964-23.276-261.152-73.436-293.938c-15.247-9.967-31.008-14.734-45.849-15.638
			c16.29,6.813,38.92,24.939,52.158,72.855c22.394,81.048,16.286,157.835-19.579,197.879c-29.633,33.091-76.303,25.654-92.662,0.023
			c0.986,14.818,3.366,29.213,7.884,42.43C153.618,411.56,285.554,407.334,305.43,350.373z"/>
		
			<linearGradient id="SVGID_1_" gradientUnits="userSpaceOnUse" x1="1548.5723" y1="226.1909" x2="1650.3672" y2="226.1909" gradientTransform="matrix(-1 0 0 1 1766.4219 0)">
			<stop  offset="0.0169" style="stop-color:#EFD845"/>
			<stop  offset="1" style="stop-color:#CEB63E"/>
		</linearGradient>
		<path fill="url(#SVGID_1_)" d="M217.834,148.952c0.319-7.931-4.417-5.545-13.987-13.631c-9.565-8.075-4.924-23.274-15.164-51.048
			c-10.245-27.768-56.306-12.032-56.306-12.032l-14.953,4.245c-0.517,1.253-0.99,2.516-1.371,3.804c0,0,24.028,54,21.362,95.197
			c-2.663,41.195-23.14,120.921-3.47,178.498c4.648,13.614,15.582,23.771,29.824,30.598c24.773-31.936,37.959-48.693,26.271-79.51
			c-12.703-33.486-14.386-100.236,1.77-119.365C207.968,166.57,217.518,156.877,217.834,148.952z"/>
		<path fill="#FFFFFF" d="M114.378,87.097c0,0,31.393-19.934,52.074-8.841c20.683,11.093,0.809,33.009,5.976,47.378
			c5.161,14.374-19.156,42.095-38.072,40.238C115.441,164.009,114.378,87.097,114.378,87.097z"/>
		<path fill="#FDBF0F" d="M136.025,359.011c0.714,1.464,1.513,2.878,2.379,4.25c0.091,0.145,0.175,0.297,0.266,0.435
			c0.862,1.338,1.803,2.62,2.795,3.866c0.124,0.162,0.243,0.311,0.37,0.469c1.007,1.228,2.079,2.417,3.209,3.56
			c0.14,0.146,0.284,0.292,0.434,0.432c1.148,1.143,2.357,2.238,3.623,3.287c0.146,0.122,0.298,0.245,0.444,0.367
			c1.295,1.056,2.645,2.068,4.051,3.036c0.131,0.088,0.265,0.181,0.395,0.27c1.451,0.99,2.956,1.931,4.506,2.826
			c0.086,0.047,0.177,0.097,0.261,0.146c1.612,0.921,3.283,1.802,4.998,2.617c0,0,0.006,0.006,0.012,0.012
			c17.587-22.673,29.279-37.712,30.432-55.548c-26.432,10.763-55.847,1.778-68.14-17.48c0.115,1.739,0.253,3.472,0.41,5.209
			c0.019,0.188,0.033,0.375,0.049,0.558c0.148,1.591,0.315,3.172,0.498,4.747c0.042,0.35,0.083,0.698,0.126,1.056
			c0.173,1.43,0.364,2.861,0.572,4.286c0.076,0.51,0.159,1.025,0.235,1.538c0.198,1.276,0.403,2.552,0.626,3.814
			c0.121,0.677,0.253,1.351,0.381,2.027c0.212,1.112,0.426,2.228,0.661,3.339c0.179,0.836,0.376,1.669,0.57,2.505
			c0.218,0.945,0.424,1.896,0.663,2.826c0.268,1.068,0.564,2.116,0.85,3.166c0.198,0.712,0.376,1.429,0.586,2.129
			c0.517,1.766,1.066,3.507,1.657,5.23c0.554,1.632,1.212,3.196,1.945,4.729C135.936,358.812,135.976,358.918,136.025,359.011z"/>
		<path fill="#79DCFF" d="M194.426,167.05c-52.498,14.903-20.213,151.246,7.328,194.61c27.541,43.366,63.42,64.224,73.236,59.24
			c9.814-4.981,1.558-21.938,1.558-21.938s22.849,28.182,40.915,26.661c18.066-1.521,3.121-30.381,3.121-30.381
			s31.623,30.531,50.122,14.469c10.597-9.205-40.48-35.009-53.087-90.026C305.016,264.674,277.72,143.407,194.426,167.05z"/>
		<path fill="#333333" d="M116.054,80.29c7.723,3.792,38.037,47.134,21.362,95.197c0,0-14.112-18.064-31.944-18.772
			c-17.83-0.725-14.438,21.947-14.438,21.947s-20.784-9.352-19.046-50.227C73.719,87.564,116.054,80.29,116.054,80.29z"/>
		<path fill="#232323" d="M137.416,175.487c5.774-16.63,5.912-32.688,3.31-46.746c-9.012,3.357-22.494,1.111-42.302,14.985
			c-25.633,17.964-7.39,34.936-7.39,34.936s-3.392-22.671,14.438-21.947C123.304,157.422,137.416,175.487,137.416,175.487z"/>
		<path fill="#232323" d="M87.702,121.927c0.292,3.462,7.31-1.107,7.548-4.09C95.495,114.854,87.494,119.478,87.702,121.927z"/>
		<path fill="#1793BF" d="M274.99,420.9c9.814-4.981,1.558-21.938,1.558-21.938s22.849,28.182,40.915,26.661
			c18.066-1.521,3.121-30.381,3.121-30.381s31.623,30.531,50.122,14.469c10.597-9.205-40.48-35.009-53.087-90.026
			c-11.051-48.227-33.397-147.386-94.874-155.167c15.801,8.398,37.124,27.809,48.945,72.693
			c20.341,77.272,49.221,115.308,52.341,128.871c3.119,13.553-14.69,13.085-33.509-10.998c0,0,19.396,30.944,11.731,45.411
			c-7.662,14.47-54.384-47.73-54.384-47.73s20.296,29.875,11.404,41.482c-7.497,9.796-46.955-18.408-72.273-63.652
			c4.728,12.517,9.814,23.289,14.752,31.066C229.295,405.026,265.174,425.884,274.99,420.9z"/>
		<path fill="#EDDF8D" d="M307.856,280.038c0.73,19.37-1.134,39.941-11.914,42.753c-9.526,2.478-22.883-25.471-22.883-25.471
			s13.47,45.514-1.661,50.488c-15.132,4.983-46.255-47.926-46.255-47.926s17.933,36.994-4.976,46.335
			c-13.289,5.415-25.802-6.676-33.976-17.787c4.953,13.443,10.341,25.01,15.562,33.229c27.541,43.366,63.42,64.224,73.236,59.24
			c9.814-4.981,1.558-21.938,1.558-21.938s22.849,28.182,40.915,26.661c18.066-1.521,3.121-30.381,3.121-30.381
			s31.623,30.531,50.122,14.469c10.597-9.205-40.48-35.009-53.087-90.026C315.075,308.588,311.937,294.794,307.856,280.038z"/>
		
			<linearGradient id="SVGID_2_" gradientUnits="userSpaceOnUse" x1="1394.2793" y1="352.875" x2="1579.3916" y2="352.875" gradientTransform="matrix(-1 0 0 1 1766.4219 0)">
			<stop  offset="0.0169" style="stop-color:#EFD845"/>
			<stop  offset="1" style="stop-color:#CEB63E"/>
		</linearGradient>
		<path fill="url(#SVGID_2_)" d="M317.619,319.685c-0.329-1.428-0.666-2.908-1.013-4.43c-0.11-0.471-0.229-0.967-0.337-1.451
			c-0.243-1.05-0.488-2.116-0.739-3.215c-0.167-0.695-0.336-1.418-0.498-2.126c-0.225-0.945-0.449-1.892-0.673-2.865
			c-0.18-0.751-0.367-1.527-0.548-2.285c-0.229-0.947-0.455-1.9-0.691-2.867c-0.2-0.826-0.403-1.657-0.609-2.495
			c-0.232-0.947-0.47-1.906-0.712-2.874c-0.21-0.852-0.431-1.714-0.648-2.571c-0.252-0.982-0.501-1.968-0.76-2.96
			c-0.227-0.875-0.455-1.76-0.688-2.657c-0.264-0.999-0.535-2.013-0.81-3.038c-0.24-0.879-0.481-1.766-0.724-2.662
			c-0.1-0.371-0.206-0.741-0.313-1.122c0.587,15.558-0.517,31.86-6.56,39.135c11.554,24.608,21.022,39.437,22.734,46.88
			c3.119,13.553-14.69,13.085-33.509-10.998c0,0,19.396,30.944,11.731,45.411c-7.662,14.47-54.384-47.73-54.384-47.73
			s20.296,29.875,11.404,41.482c-7.493,9.786-46.93-18.384-72.244-63.604c0.136,0.362,0.271,0.727,0.412,1.085
			c0.352,0.922,0.71,1.842,1.062,2.742c0.257,0.65,0.517,1.292,0.776,1.929c0.358,0.885,0.718,1.77,1.075,2.635
			c0.271,0.632,0.537,1.253,0.809,1.881c0.354,0.832,0.71,1.657,1.066,2.466c0.288,0.641,0.574,1.264,0.858,1.892
			c0.344,0.754,0.686,1.513,1.029,2.242c0.309,0.654,0.622,1.28,0.928,1.922c0.33,0.665,0.655,1.345,0.976,1.988
			c0.342,0.676,0.68,1.31,1.017,1.966c0.3,0.572,0.597,1.157,0.896,1.707c0.405,0.747,0.809,1.461,1.208,2.174
			c0.235,0.405,0.467,0.84,0.702,1.234c0.638,1.102,1.276,2.157,1.91,3.156c27.541,43.366,63.42,64.224,73.236,59.24
			c9.814-4.981,1.558-21.938,1.558-21.938s22.849,28.182,40.915,26.661c18.066-1.521,3.121-30.381,3.121-30.381
			s31.623,30.531,50.122,14.469C381.303,400.506,330.226,374.702,317.619,319.685z"/>
		<circle fill="#333333" cx="158.022" cy="91.64" r="10.042"/>
		<path fill="#FFFFFF" d="M155.256,88.441c0,1.289-1.042,2.328-2.328,2.328c-1.284,0-2.328-1.04-2.328-2.328
			c0-1.282,1.043-2.326,2.328-2.326C154.215,86.115,155.256,87.159,155.256,88.441z"/>
	</g>
</g>
</svg>
