<?xml version="1.0" encoding="utf-8"?>
<!-- Generator: Adobe Illustrator 16.0.0, SVG Export Plug-In . SVG Version: 6.00 Build 0)  -->
<!DOCTYPE svg PUBLIC "-//W3C//DTD SVG 1.1 Tiny//EN" "http://www.w3.org/Graphics/SVG/1.1/DTD/svg11-tiny.dtd">
<svg version="1.1" baseProfile="tiny" id="Layer_1" xmlns="http://www.w3.org/2000/svg" xmlns:xlink="http://www.w3.org/1999/xlink"
	 x="0px" y="0px" width="600px" height="500px" viewBox="0 0 600 500" xml:space="preserve">
<g>
	<g>
		<path fill="#202123" d="M479.123,457.743V272.335h22.85v185.408H479.123z"/>
		<g>
			<path fill="#202123" d="M64.836,275.743L51.371,201.2h-6.974v74.543h-25.97V99.004h25.97c31.019,0,44.246,17.554,44.246,50.979
				c0,17.55-4.57,33.422-14.428,40.155l16.59,85.604H64.836z M44.397,177.154c3.608,0,8.417-0.481,12.263-3.848
				c3.849-3.368,6.975-9.858,6.975-22.363s-3.126-19.237-6.975-22.604c-3.846-3.366-8.654-3.606-12.263-3.606V177.154z"/>
			<path fill="#202123" d="M129.516,275.743h-24.287V99.004h24.287v56.269c0.479-0.238,1.441-1.203,2.885-2.645
				c2.645-2.645,6.253-6.256,10.58-8.658c2.164-1.202,4.088-1.682,6.252-1.682c6.493,0,11.062,3.845,13.946,8.655
				c2.888,5.05,4.33,11.542,4.33,17.073v107.727h-24.286v-104.12c0-5.049-2.887-5.771-5.772-5.771c-2.646,0-4.089,1.441-5.771,3.126
				c-0.722,0.961-1.441,1.927-2.163,3.126V275.743z"/>
			<path fill="#202123" d="M180.486,300.754c0.24,0.239,0.722,0.239,1.443,0.239c1.202,0.241,7.215,0.721,11.06-2.162
				c3.848-2.885,6.493-6.977,7.938-12.025c0.721-2.405,0.961-4.811,0.961-7.212L179.525,144.21h23.805l9.618,80.798l0.482,6.731
				h0.962l0.479-6.731l9.619-80.798h23.807l-23.324,141.393c-1.205,9.378-4.811,18.518-10.581,25.49s-13.466,11.781-23.086,11.781
				c-0.721,0-1.684,0-2.884,0c-2.165,0-5.05-0.242-7.937-0.48V300.754z"/>
			<path fill="#202123" d="M290.134,111.749v32.461h16.591v21.885h-16.591V231.5c0,4.085,0,9.379,0.962,13.705
				c0.961,4.329,2.886,7.935,6.731,7.935c1.925,0,4.331-0.24,6.013-0.479c0.961-0.241,1.924-0.241,2.885-0.481v23.805
				c-1.201,0.243-2.404,0.722-3.605,0.962c-2.406,0.479-5.531,0.72-9.379,0.72c-14.187,0-20.922-7.211-24.287-16.353
				c-3.366-9.134-3.606-20.195-3.606-27.891v-67.328h-12.263V144.21h12.263v-32.461H290.134z"/>
			<path fill="#202123" d="M343.992,275.743h-24.285V99.004h24.285v56.269c0.482-0.238,1.443-1.203,2.887-2.645
				c2.645-2.645,6.25-6.256,10.58-8.658c2.164-1.202,4.088-1.682,6.252-1.682c6.492,0,11.062,3.845,13.947,8.655
				c2.885,5.05,4.328,11.542,4.328,17.073v107.727h-24.287v-104.12c0-5.049-2.887-5.771-5.77-5.771
				c-2.645,0-4.088,1.441-5.771,3.126c-0.723,0.961-1.443,1.927-2.166,3.126V275.743z"/>
			<path fill="#202123" d="M463.498,275.743h-22.844v-104.12c0-5.049-3.848-5.771-6.494-5.771c-2.645,0-4.809,1.441-6.492,3.126
				c-0.961,0.961-1.924,1.927-2.645,3.126v103.64h-24.287V144.21h24.287v11.062c0.48-0.238,1.441-1.203,2.885-2.645
				c2.645-2.645,6.732-6.256,11.062-8.658c2.164-1.202,4.088-1.682,6.252-1.682c8.656,0,13.705,6.975,16.352,14.668
				c0.961-0.724,2.162-1.922,3.846-3.606c3.125-3.366,7.215-6.492,11.783-9.14c2.166-1.202,4.328-1.922,6.492-1.922
				c6.492,0,11.061,3.845,13.949,8.655c2.885,5.05,4.328,11.542,4.328,17.073v107.727h-22.846v-104.12
				c0-5.049-3.846-5.771-6.492-5.771s-4.811,1.441-6.492,3.126c-0.963,0.961-1.924,1.927-2.645,3.126V275.743z"/>
			<path fill="#202123" d="M281.043,328.373c0-5.771-0.242-12.265-1.925-17.314c-1.684-4.807-4.327-8.175-8.417-8.175
				c-6.731,0.24-8.896,7.218-8.896,17.553c0,6.015,2.645,12.266,6.493,19c3.848,6.731,8.896,13.705,13.945,21.161
				c6.014,8.895,12.024,18.034,16.594,26.929c4.569,8.899,7.694,18.037,7.694,27.652c0,11.785-1.924,22.85-7.455,31.025
				c-5.531,8.174-14.428,13.462-28.614,13.462c-16.592,0-25.97-6.252-31.261-15.87c-5.29-9.619-6.493-22.363-6.493-35.591
				l25.49-2.401c0,7.451,0.24,14.908,2.163,20.436c1.684,5.775,4.569,9.621,10.101,9.621c7.693,0,10.581-8.176,10.581-19.479
				c0-5.768-2.888-12.5-6.735-19.476c-2.162-3.369-4.327-6.975-6.732-10.58c-5.05-7.216-10.579-15.392-16.351-24.285
				c-5.771-8.899-10.101-18.033-12.746-27.416c-1.441-4.567-2.162-9.378-2.162-14.188c0-9.617,2.162-19.955,7.694-27.891
				c5.53-7.694,13.946-13.225,26.21-13.47c15.631-0.238,24.768,6.253,29.817,15.633c5.05,9.618,6.493,21.399,6.493,31.26
				L281.043,328.373z"/>
			<path fill="#202123" d="M380.584,425.761c-0.721,12.745-4.566,21.641-12.984,28.617c-4.326,3.605-10.338,5.288-18.275,5.288
				c-15.631,0-23.324-8.655-27.17-17.312c-2.164-5.051-3.607-10.821-3.85-17.312v-66.129c0.723-12.745,4.57-22.122,12.986-29.336
				c4.088-3.608,10.1-5.291,18.033-5.291c15.631,0,23.568,8.655,27.416,17.074c2.162,5.047,3.604,10.578,3.844,16.831V425.761z
				 M357.742,358.913c0.24-5.049-0.723-8.658-3.127-11.541c-1.201-1.204-3.127-1.929-5.291-1.929c-4.568,0-6.49,3.127-7.451,6.737
				c-0.723,1.922-0.965,4.084-0.723,6.732v66.129c-0.242,5.049,0.961,8.656,3.127,11.301c1.201,1.198,2.885,1.924,5.047,1.924
				c4.57,0,6.734-2.886,7.695-6.492c0.723-1.924,0.963-4.09,0.723-6.732V358.913z"/>
			<path fill="#202123" d="M435.166,326.212h24.287v131.531h-24.287v-11.061c-0.479,0.238-1.441,1.201-2.645,2.401
				c-2.885,2.888-6.252,6.254-10.58,8.659c-2.166,1.202-4.326,1.923-6.494,1.923c-6.49,0-11.061-3.845-13.945-8.899
				c-2.885-4.807-4.328-11.301-4.328-16.829V326.212h24.287v104.119c0,5.05,2.885,5.769,5.771,5.769c2.645,0,4.088-1.44,5.771-3.126
				c0.721-0.721,1.441-1.924,2.162-3.123V326.212z"/>
			<g>
				<path fill="#202123" d="M126.106,457.115c-3.25-3.483-6.5-6.961-10.213-11.142c-10.208,7.892-24.366,13.692-42.931,13.692
					c-37.825,0-54.535-22.513-54.535-44.325c0-20.652,11.836-35.51,29.703-44.787v-0.932c-6.729-7.423-11.834-19.021-11.834-30.165
					c0-19.726,15.548-41.308,46.877-41.308c24.134,0,42.469,14.152,42.469,36.664c0,15.787-9.284,29.243-30.865,40.148l-0.231,0.929
					c9.049,9.978,18.563,21.35,26.221,29.241c6.269-9.745,11.141-24.137,13.23-38.061h31.558
					c-4.175,23.67-12.065,43.861-25.987,59.411c8.817,9.979,17.867,20.188,27.612,30.633H126.106z M99.417,426.247
					c-9.744-9.742-22.511-23.9-35.273-38.289c-6.497,4.645-12.299,11.368-12.299,21.582c0,13.232,9.979,24.595,25.991,24.595
					C87.117,434.135,94.777,430.659,99.417,426.247z M67.86,336.207c0,7.894,3.71,14.854,10.671,22.51
					c11.371-7.888,17.173-13.923,17.173-22.974c0-7.423-4.408-15.551-13.691-15.551C72.963,320.192,67.86,328.085,67.86,336.207z"/>
			</g>
		</g>
	</g>
	<g>
		<path fill="#1FC4FF" d="M581.572,152.327c0,12.65-10.35,23-23,23H329.531c-12.65,0-23-10.35-23-23V63.334c0-12.65,10.35-23,23-23
			h229.041c12.65,0,23,10.35,23,23V152.327z"/>
		<g>
			<path fill="#FFFFFF" d="M345.391,148.89V66.772h21.396c3.07,0,5.803,0.156,8.197,0.469c2.393,0.314,4.77,0.934,7.131,1.857
				c2.361,0.926,4.311,2.154,5.846,3.691c1.535,1.535,2.764,3.623,3.689,6.264c0.857,2.445,1.27,5.283,1.238,8.52
				c0,0.232,0,0.463,0,0.693c-0.133,9.576-4.145,15.074-12.035,16.492c4.721,0.629,8.32,2.609,10.797,5.943
				c2.477,3.336,3.746,7.941,3.812,13.818c0,0.199,0,0.381,0,0.545c-0.033,8.023-2.129,13.984-6.289,17.881
				c-4.293,3.961-10.467,5.943-18.523,5.943H345.391z M363.518,99.608h3.467c3.896,0,6.547-0.875,7.949-2.625
				c1.404-1.75,2.105-4.523,2.105-8.32c0-6.471-3.549-9.707-10.648-9.707h-2.873V99.608z M363.518,136.21h3.814
				c3.928,0,6.686-0.957,8.271-2.873c1.584-1.914,2.377-4.936,2.377-9.062c0-4.623-0.811-7.893-2.428-9.807
				c-1.617-1.916-4.441-2.873-8.469-2.873h-3.566V136.21z"/>
			<path fill="#FFFFFF" d="M405.023,148.89V66.772h36.898v12.381H423.15V99.46h14.312v12.629H423.15v24.518h18.969v12.283H405.023z"
				/>
			<path fill="#FFFFFF" d="M457.918,148.89V80.194h-12.629V66.772h43.287v13.422h-12.48v68.695H457.918z"/>
			<path fill="#FFFFFF" d="M491.201,148.89l15.553-82.117h20.504l15.453,82.117h-16.74l-2.824-17.434h-11.984l-2.773,17.434H491.201
				z M512.746,120.608h8.768l-4.408-31.797L512.746,120.608z"/>
		</g>
	</g>
</g>
</svg>
