<?xml version="1.0" encoding="utf-8"?>
<!-- Generator: Adobe Illustrator 16.0.0, SVG Export Plug-In . SVG Version: 6.00 Build 0)  -->
<!DOCTYPE svg PUBLIC "-//W3C//DTD SVG 1.1//EN" "http://www.w3.org/Graphics/SVG/1.1/DTD/svg11.dtd">
<svg version="1.1" id="Layer_1" xmlns="http://www.w3.org/2000/svg" xmlns:xlink="http://www.w3.org/1999/xlink" x="0px" y="0px"
	 width="1000px" height="217px" viewBox="0 0 1000 217" enable-background="new 0 0 1000 217" xml:space="preserve">
<path fill="#3F51B5" d="M241.255-1053.385h13.242v9.405c2.701-6.444,7.058-10.627,14.9-10.28v13.853H268.7
	c-8.8,0-14.203,5.317-14.203,16.47v17.25h-13.242V-1053.385z"/>
<path fill="#3F51B5" d="M268.87-1029.773v-0.176c0-13.415,10.804-24.311,25.354-24.311c14.462,0,25.179,10.721,25.179,24.133v0.178
	c0,13.414-10.803,24.309-25.353,24.309C279.588-1005.641,268.87-1016.359,268.87-1029.773z M306.334-1029.773v-0.176
	c0-6.887-4.966-12.895-12.284-12.895c-7.581,0-12.11,5.832-12.11,12.717v0.178c0,6.883,4.965,12.895,12.284,12.895
	C301.804-1017.055,306.334-1022.891,306.334-1029.773z"/>
<path fill="#3F51B5" d="M321.488-1029.773v-0.176c0-13.327,10.194-24.311,24.483-24.311c8.799,0,14.288,2.965,18.644,7.844
	l-8.102,8.712c-2.962-3.138-5.925-5.14-10.629-5.14c-6.621,0-11.326,5.832-11.326,12.717v0.178c0,7.146,4.617,12.895,11.848,12.895
	c4.444,0,7.494-1.916,10.718-4.969l7.753,7.846c-4.531,4.965-9.758,8.537-19.081,8.537
	C331.77-1005.641,321.488-1016.447,321.488-1029.773z"/>
<path fill="#3F51B5" d="M368.272-1070.287h13.244v33.893l15.508-16.99h15.855L395.107-1035l18.381,28.311h-15.333l-11.938-19.166
	l-4.703,4.969v14.197h-13.244L368.272-1070.287L368.272-1070.287z"/>
<path fill="#3F51B5" d="M410.175-1029.773v-0.176c0-13.327,9.497-24.311,23.088-24.311c15.597,0,22.74,12.108,22.74,25.354
	c0,1.049-0.088,2.264-0.175,3.484h-32.497c1.306,6.016,5.489,9.148,11.414,9.148c4.442,0,7.667-1.393,11.325-4.789l7.579,6.707
	c-4.355,5.4-10.63,8.713-19.081,8.713C420.544-1005.641,410.175-1015.488,410.175-1029.773z M443.109-1033.699
	c-0.785-5.92-4.271-9.93-9.846-9.93c-5.488,0-9.062,3.922-10.105,9.93H443.109z"/>
<path fill="#3F51B5" d="M462.795-1019.934v-22.13h-5.577v-11.321h5.577v-11.936h13.243v11.936h10.977v11.321h-10.977v19.952
	c0,3.053,1.307,4.535,4.269,4.535c2.439,0,4.617-0.613,6.533-1.656v10.629c-2.787,1.654-6.011,2.701-10.454,2.701
	C468.283-1005.902,462.795-1009.125,462.795-1019.934z"/>
<path fill="#3F51B5" d="M492.937-1067.674H507.4l16.029,25.789l16.03-25.789h14.464v60.984h-13.331v-39.812l-17.163,26.047h-0.349
	l-16.989-25.786v39.552h-13.155V-1067.674z"/>
<path fill="#3F51B5" d="M558.101-1067.674h14.812l15.941,42.955l15.944-42.955h14.463l-24.654,61.42h-11.851L558.101-1067.674z"/>
<path fill="#3F51B5" d="M623.44-1067.674h24.915c14.552,0,23.351,8.625,23.351,21.086v0.174c0,14.111-10.978,21.428-24.655,21.428
	h-10.193v18.299h-13.416L623.44-1067.674L623.44-1067.674z M647.486-1036.924c6.709,0,10.629-4.004,10.629-9.23v-0.173
	c0-6.015-4.183-9.237-10.891-9.237h-10.368v18.643h10.63V-1036.924z"/>
<g>
	<linearGradient id="SVGID_1_" gradientUnits="userSpaceOnUse" x1="286.5698" y1="-153.2373" x2="411.9243" y2="-302.6289">
		<stop  offset="0" style="stop-color:#FA1947"/>
		<stop  offset="1" style="stop-color:#3F51B5"/>
	</linearGradient>
	<path fill="url(#SVGID_1_)" d="M400.598-283.992c2.848,0,4.517,0.265,4.811,0.313c0.551,0.096,0.994,0.512,1.117,1.057
		c0.02,0.095,0.506,2.302,0.506,6.3c0,12.156-4.284,37.367-32.985,69.624c-4.986,5.607-10.045,10.631-15.038,14.955l-4.109,22.97
		c-0.056,0.295-0.196,0.56-0.41,0.762l-18.324,17.44c-0.26,0.247-0.599,0.384-0.949,0.384c-0.106,0-0.214-0.015-0.32-0.039
		c-0.454-0.105-0.826-0.432-0.983-0.87l-8.225-22.524c-2.474,0.456-4.677,0.629-6.596,0.629c-4.083,0-6.881-0.781-8.27-1.293
		l-8.038,8.763c-0.252,0.272-0.601,0.437-0.972,0.45c-0.016,0-0.032,0-0.047,0c-0.356,0-0.697-0.134-0.952-0.377l-6.917-6.576
		c-0.526-0.503-0.574-1.324-0.116-1.88l7.274-8.857c-2.431-3.536-3.544-7.83-3.349-12.696l-22.958-6.676
		c-0.447-0.13-0.798-0.482-0.935-0.923c-0.042-0.133-0.061-0.267-0.061-0.406c0-0.324,0.109-0.628,0.318-0.884l16.173-19.454
		c0.182-0.211,0.421-0.373,0.694-0.44l22.74-6.332c6.189-8.322,11.944-14.262,12-14.314
		C360.864-280.079,389.573-283.992,400.598-283.992 M400.598-302.497c-16.242,0-49.269,5.783-88.007,44.521l0.006,0.008
		c-1.33,1.352-5.208,5.492-9.798,11.212l-16.698,4.65c-3.844,1.034-7.251,3.178-9.876,6.221l-0.108,0.127l-0.104,0.127
		l-16.172,19.455c-2.977,3.606-4.593,8.103-4.593,12.713c0,2.059,0.316,4.087,0.939,6.039c2.023,6.342,7.034,11.221,13.427,13.067
		l7.567,2.201c-3.951,7.676-2.525,17.36,3.953,23.528l6.929,6.589c3.68,3.518,8.56,5.471,13.703,5.471h0.302l0.349-0.011h0.044
		l0.044-0.003c4.283-0.161,8.432-1.733,11.75-4.403l2.277,6.236c2.294,6.289,7.529,10.953,14.043,12.517
		c1.519,0.363,3.081,0.55,4.642,0.55c5.119,0,9.982-1.946,13.697-5.478l18.333-17.448c3.038-2.887,5.056-6.602,5.836-10.73
		l0.017-0.089l0.015-0.087l2.995-16.75c3.96-3.729,7.9-7.792,11.766-12.141c32.768-36.825,37.66-67.132,37.66-81.918
		c0-5.11-0.57-8.552-0.911-10.149l-0.021-0.098l-0.024-0.104c-1.763-7.852-8.024-13.829-15.954-15.228
		C407.308-302.131,404.598-302.497,400.598-302.497L400.598-302.497z"/>
</g>
<g>
	<g>
		<linearGradient id="SVGID_2_" gradientUnits="userSpaceOnUse" x1="72.0337" y1="177.9043" x2="213.9268" y2="8.8027">
			<stop  offset="0" style="stop-color:#FA1947"/>
			<stop  offset="1" style="stop-color:#3F51B5"/>
		</linearGradient>
		<path fill="url(#SVGID_2_)" d="M214.731,15.024c3.979,0,6.311,0.37,6.722,0.438c0.77,0.133,1.388,0.715,1.56,1.476
			c0.028,0.133,0.708,3.217,0.708,8.803c0,16.983-5.986,52.209-46.087,97.277c-6.966,7.835-14.035,14.854-21.011,20.896
			l-5.741,32.094c-0.077,0.412-0.273,0.78-0.573,1.064l-25.602,24.367c-0.363,0.345-0.837,0.536-1.326,0.536
			c-0.148,0-0.299-0.021-0.447-0.055c-0.635-0.146-1.153-0.603-1.373-1.216l-11.491-31.471c-3.456,0.638-6.535,0.879-9.217,0.879
			c-5.705,0-9.613-1.092-11.554-1.806l-11.23,12.241c-0.353,0.381-0.84,0.611-1.358,0.63c-0.022,0-0.045,0-0.066,0
			c-0.497,0-0.974-0.187-1.33-0.526l-9.664-9.188c-0.735-0.702-0.803-1.85-0.163-2.628l10.163-12.375
			c-3.396-4.939-4.952-10.94-4.679-17.738l-32.076-9.327c-0.626-0.182-1.116-0.674-1.307-1.29c-0.06-0.185-0.086-0.373-0.086-0.566
			c0-0.454,0.153-0.878,0.445-1.235l22.597-27.182c0.255-0.295,0.589-0.521,0.971-0.616l31.771-8.846
			c8.647-11.627,16.688-19.927,16.766-20.001C159.215,20.491,199.327,15.024,214.731,15.024"/>
	</g>
	<g>
		<path fill="#FF1744" d="M254.996,111.923c5.19-8.836,13.746-13.746,24.547-13.887v21.884c-14.026-1.264-23.284,5.329-24.547,15.99
			v38.854H230.73V99.158h24.266V111.923z"/>
		<path fill="#FF1744" d="M362.721,136.892c0,23.284-16.552,38.714-41.239,38.714c-24.828,0-41.379-15.43-41.379-38.714
			s16.551-38.574,41.379-38.574C346.169,98.317,362.721,113.607,362.721,136.892z M304.509,137.171
			c0,11.783,6.873,19.639,16.973,19.639c9.959,0,16.832-7.855,16.832-19.639c0-11.642-6.873-19.637-16.832-19.637
			C311.382,117.534,304.509,125.529,304.509,137.171z"/>
		<path fill="#FF1744" d="M438.183,115.29l-17.393,10.521c-3.507-4.91-8.697-7.855-15.291-7.855
			c-9.396,0-15.849,7.715-15.849,19.077c0,11.642,6.452,19.216,15.849,19.216c6.874,0,12.205-2.805,15.431-8.556l17.674,10.379
			c-6.173,11.082-18.375,17.534-34.365,17.534c-23.284,0-38.994-15.43-38.994-38.435c0-23.284,15.85-38.854,39.274-38.854
			C419.527,98.317,431.59,104.49,438.183,115.29z"/>
		<path fill="#FF1744" d="M471.145,154.144v20.62h-24.266V70.685h24.266v54.985l24.969-26.512h27.493l-27.775,29.036l28.616,46.569
			h-28.755l-16.411-29.175L471.145,154.144z"/>
		<path fill="#FF1744" d="M597.665,143.484h-53.162c2.386,8.978,8.837,14.026,17.814,14.026c6.593,0,13.046-2.665,18.095-7.715
			l12.765,12.484c-7.715,8.416-19.077,13.325-32.964,13.325c-24.687,0-40.116-15.43-40.116-38.435
			c0-23.425,15.991-38.854,39.416-38.854C586.163,98.317,599.348,115.852,597.665,143.484z M574.382,130.438
			c0-9.257-5.892-15.288-14.588-15.288c-8.417,0-14.169,6.172-15.71,15.288H574.382z"/>
		<path fill="#FF1744" d="M655.454,170.696c-5.47,3.226-12.905,5.19-20.198,5.19c-14.588,0-25.108-8.277-25.108-23.987v-33.383
			h-10.52v-15.851h10.52V81.625h24.127v20.9h19.777v15.991h-19.777v29.597c0,5.892,2.523,8.416,7.013,8.275
			c2.524,0,5.751-0.981,9.397-2.524L655.454,170.696z"/>
		<path fill="#3F51B5" d="M791.654,127.073v47.69h-24.125v-40.957c0-8.979-5.051-14.449-13.047-14.449
			c-9.117,0.28-14.728,7.716-14.728,17.954v37.452h-24.267v-40.957c0-8.979-4.91-14.449-12.905-14.449
			c-9.256,0.28-15.008,7.716-15.008,17.954v37.452h-24.127V99.158h24.127v12.484c5.189-8.977,13.887-13.466,24.968-13.606
			c12.344,0,21.46,6.454,25.248,17.114c4.91-11.223,14.167-16.974,26.65-17.114C780.994,98.036,791.654,109.398,791.654,127.073z"/>
		<path fill="#3F51B5" d="M821.67,174.764l-28.474-75.605h24.966l16.271,53.443l16.411-53.443h24.127l-28.475,75.605H821.67z"/>
		<path fill="#3F51B5" d="M962.498,137.312c0,23.005-13.745,38.294-34.926,38.294c-9.82,0-17.815-3.928-23.145-10.941v37.312
			h-24.267V99.158h24.267v9.961c5.329-6.873,13.044-10.802,22.583-10.802C948.332,98.317,962.498,113.887,962.498,137.312z
			 M938.092,136.611c0-11.503-6.874-19.639-16.973-19.639c-9.818,0-16.691,8.136-16.691,19.639c0,11.781,6.873,19.777,16.691,19.777
			C931.218,156.389,938.092,148.253,938.092,136.611z"/>
	</g>
</g>
</svg>
