<?xml version="1.0" encoding="utf-8"?>
<!-- Generator: Adobe Illustrator 16.0.0, SVG Export Plug-In . SVG Version: 6.00 Build 0)  -->
<!DOCTYPE svg PUBLIC "-//W3C//DTD SVG 1.1//EN" "http://www.w3.org/Graphics/SVG/1.1/DTD/svg11.dtd">
<svg version="1.1" id="Layer_1" xmlns="http://www.w3.org/2000/svg" xmlns:xlink="http://www.w3.org/1999/xlink" x="0px" y="0px"
	 width="619.504px" height="123.997px" viewBox="0 0 619.504 123.997" enable-background="new 0 0 619.504 123.997"
	 xml:space="preserve">
<g>
	<path d="M200.946-256.497h14.651v10.41c2.988-7.133,7.808-11.76,16.483-11.374v15.326h-0.771c-9.735,0-15.712,5.88-15.712,18.218
		v19.085h-14.651V-256.497z"/>
	<path d="M231.499-230.376v-0.191c0-14.845,11.952-26.894,28.049-26.894c16.001,0,27.857,11.856,27.857,26.7v0.193
		c0,14.844-11.953,26.893-28.05,26.893C243.355-203.675,231.499-215.531,231.499-230.376z M272.947-230.376v-0.191
		c0-7.615-5.494-14.267-13.591-14.267c-8.386,0-13.398,6.458-13.398,14.073v0.193c0,7.614,5.494,14.266,13.591,14.266
		C267.935-216.302,272.947-222.761,272.947-230.376z"/>
	<path d="M289.713-230.376v-0.191c0-14.748,11.278-26.894,27.085-26.894c9.735,0,15.808,3.277,20.627,8.675l-8.964,9.639
		c-3.277-3.469-6.554-5.687-11.759-5.687c-7.326,0-12.531,6.458-12.531,14.073v0.193c0,7.903,5.109,14.266,13.109,14.266
		c4.916,0,8.29-2.121,11.856-5.495l8.579,8.675c-5.012,5.494-10.795,9.447-21.109,9.447
		C301.087-203.675,289.713-215.628,289.713-230.376z"/>
	<path d="M341.471-275.196h14.651v37.495l17.158-18.796h17.543l-19.664,20.338l20.338,31.327h-16.964l-13.206-21.206l-5.205,5.494
		v15.712h-14.651V-275.196z"/>
	<path d="M387.831-230.376v-0.191c0-14.748,10.506-26.894,25.543-26.894c17.253,0,25.158,13.398,25.158,28.05
		c0,1.156-0.097,2.506-0.193,3.855h-35.954c1.446,6.65,6.073,10.121,12.627,10.121c4.916,0,8.482-1.543,12.53-5.302l8.386,7.422
		c-4.82,5.976-11.76,9.64-21.109,9.64C399.301-203.675,387.831-214.567,387.831-230.376z M424.267-234.713
		c-0.868-6.555-4.723-10.988-10.892-10.988c-6.073,0-10.025,4.337-11.181,10.988H424.267z"/>
	<path d="M446.046-219.483v-24.482h-6.169v-12.531h6.169v-13.205h14.652v13.205h12.145v12.531h-12.145v22.072
		c0,3.374,1.445,5.013,4.723,5.013c2.699,0,5.108-0.675,7.229-1.831v11.76c-3.084,1.831-6.65,2.988-11.566,2.988
		C452.118-203.964,446.046-207.53,446.046-219.483z"/>
	<path d="M479.393-272.305h16.002l17.734,28.531l17.736-28.531h16.001v67.473h-14.748v-44.05l-18.989,28.82h-0.385l-18.797-28.531
		v43.761h-14.555V-272.305z"/>
	<path d="M551.488-272.305h16.386l17.64,47.521l17.64-47.521h16l-27.277,67.954h-13.109L551.488-272.305z"/>
	<path d="M623.775-272.305h27.567c16.098,0,25.832,9.542,25.832,23.326v0.192c0,15.615-12.145,23.713-27.277,23.713H638.62v20.241
		h-14.845V-272.305z M650.378-238.279c7.423,0,11.76-4.435,11.76-10.218v-0.192c0-6.651-4.627-10.218-12.049-10.218h-11.47v20.628
		H650.378z"/>
	<g>
		<path d="M164.811-288c2.214,0,3.51,0.203,3.738,0.242c0.429,0.074,0.772,0.398,0.868,0.823c0.016,0.073,0.393,1.787,0.393,4.897
			c0,9.449-3.33,29.045-25.638,54.114c-3.875,4.354-7.805,8.263-11.689,11.623l-3.192,17.855c-0.042,0.227-0.152,0.431-0.318,0.589
			l-14.241,13.555c-0.203,0.192-0.469,0.298-0.742,0.298c-0.081,0-0.163-0.009-0.244-0.028c-0.353-0.082-0.641-0.336-0.765-0.678
			l-6.392-17.506c-1.92,0.354-3.629,0.487-5.119,0.487c-3.177,0-5.355-0.61-6.435-1.006l-6.247,6.812
			c-0.195,0.214-0.467,0.34-0.755,0.35c-0.011,0-0.022,0.001-0.034,0.001c-0.278,0-0.545-0.104-0.744-0.295l-5.376-5.108
			c-0.41-0.392-0.446-1.026-0.09-1.463l5.652-6.881c-1.888-2.748-2.753-6.087-2.601-9.87l-17.845-5.192
			c-0.347-0.102-0.62-0.37-0.727-0.718c-0.033-0.104-0.048-0.208-0.048-0.314c0-0.248,0.086-0.49,0.248-0.687l12.571-15.116
			c0.141-0.168,0.328-0.292,0.54-0.349l17.674-4.917c4.812-6.471,9.283-11.083,9.327-11.129
			C133.927-284.959,156.243-288,164.811-288 M164.811-301c-5.823,0-15.244,1.029-27.057,5.932
			c-13.729,5.698-27.311,15.208-40.368,28.266l-0.1,0.1l-0.098,0.103c-0.406,0.421-3.651,3.814-7.589,8.754l-13.483,3.752
			c-2.756,0.759-5.186,2.319-7.032,4.518l-0.021,0.024l-0.021,0.024l-12.571,15.116c-2.108,2.552-3.253,5.735-3.253,8.999
			c0,1.415,0.213,2.817,0.632,4.168c1.401,4.521,4.947,8.012,9.493,9.342l7.646,2.225c-3.817,5.634-3.068,13.354,1.91,18.106
			l5.398,5.13c2.604,2.487,6.057,3.871,9.699,3.871h0.208l0.243-0.008c3.735-0.126,7.304-1.752,9.838-4.469l2.482,6.798
			c1.623,4.47,5.376,7.799,10.034,8.881c1.043,0.243,2.116,0.366,3.187,0.366c3.623,0,7.066-1.375,9.695-3.873l14.25-13.562
			c2.166-2.064,3.595-4.703,4.139-7.639l0.007-0.039l0.007-0.04l2.408-13.469c3.145-2.94,6.29-6.174,9.388-9.655
			c25.169-28.284,28.927-51.459,28.927-62.757c0-4.014-0.477-6.668-0.682-7.623l-0.012-0.057l-0.014-0.062
			c-1.25-5.579-5.701-9.814-11.337-10.789C169.825-300.729,167.81-301,164.811-301L164.811-301z"/>
	</g>
	<g>
		<circle cx="127.33" cy="-244.854" r="10.841"/>
	</g>
</g>
<g>
	<path fill="#3F51B5" d="M155.415,43.475h13.242v9.405c2.701-6.444,7.058-10.627,14.9-10.28v13.852h-0.697
		c-8.8,0-14.203,5.317-14.203,16.47v17.25h-13.242V43.475z"/>
	<path fill="#3F51B5" d="M183.03,67.087v-0.176c0-13.416,10.804-24.312,25.354-24.312c14.462,0,25.179,10.721,25.179,24.133v0.179
		c0,13.413-10.803,24.309-25.353,24.309C193.748,91.22,183.03,80.501,183.03,67.087z M220.494,67.087v-0.176
		c0-6.887-4.966-12.896-12.284-12.896c-7.581,0-12.11,5.833-12.11,12.717v0.179c0,6.883,4.965,12.893,12.284,12.893
		C215.964,79.804,220.494,73.97,220.494,67.087z"/>
	<path fill="#3F51B5" d="M235.648,67.087v-0.176c0-13.328,10.194-24.312,24.483-24.312c8.799,0,14.288,2.965,18.644,7.845
		l-8.102,8.711c-2.962-3.137-5.925-5.14-10.629-5.14c-6.621,0-11.326,5.833-11.326,12.717v0.179c0,7.146,4.617,12.893,11.848,12.893
		c4.444,0,7.494-1.916,10.718-4.968l7.753,7.845c-4.531,4.966-9.758,8.539-19.081,8.539C245.93,91.22,235.648,80.412,235.648,67.087
		z"/>
	<path fill="#3F51B5" d="M282.432,26.572h13.244v33.893l15.508-16.99h15.855L309.268,61.86l18.38,28.311h-15.333l-11.937-19.166
		l-4.703,4.967v14.199h-13.244V26.572z"/>
	<path fill="#3F51B5" d="M324.335,67.087v-0.176c0-13.328,9.497-24.312,23.088-24.312c15.596,0,22.74,12.109,22.74,25.354
		c0,1.049-0.088,2.265-0.175,3.484h-32.497c1.306,6.016,5.489,9.15,11.414,9.15c4.443,0,7.667-1.393,11.325-4.79l7.58,6.708
		c-4.356,5.4-10.63,8.713-19.081,8.713C334.704,91.22,324.335,81.372,324.335,67.087z M357.269,63.16
		c-0.785-5.92-4.27-9.93-9.845-9.93c-5.488,0-9.062,3.923-10.106,9.93H357.269z"/>
	<path fill="#3F51B5" d="M376.955,76.926v-22.13h-5.577V43.475h5.577V31.539h13.243v11.936h10.977v11.321h-10.977v19.953
		c0,3.052,1.307,4.534,4.269,4.534c2.439,0,4.617-0.613,6.533-1.655v10.628c-2.787,1.655-6.011,2.701-10.454,2.701
		C382.443,90.957,376.955,87.735,376.955,76.926z"/>
	<path fill="#3F51B5" d="M407.097,29.185h14.464l16.029,25.79l16.03-25.79h14.464v60.986h-13.331V50.358L437.59,76.405h-0.349
		l-16.989-25.787v39.553h-13.155V29.185z"/>
	<path fill="#3F51B5" d="M472.261,29.185h14.812l15.942,42.955l15.944-42.955h14.463l-24.654,61.421h-11.851L472.261,29.185z"/>
	<path fill="#3F51B5" d="M537.601,29.185h24.915c14.551,0,23.35,8.625,23.35,21.087v0.173c0,14.111-10.977,21.429-24.655,21.429
		h-10.193v18.298h-13.416V29.185z M561.647,59.936c6.709,0,10.628-4.005,10.628-9.231v-0.173c0-6.015-4.182-9.237-10.89-9.237
		h-10.368v18.642H561.647z"/>
	<path fill="#3F51B5" d="M122.753,14.998c2.001,0,3.174,0.185,3.38,0.22c0.387,0.068,0.698,0.36,0.784,0.743
		c0.014,0.067,0.356,1.617,0.356,4.426c0,8.54-3.01,26.252-23.173,48.912c-3.503,3.94-7.057,7.469-10.565,10.507l-2.886,16.138
		c-0.039,0.207-0.138,0.392-0.288,0.534l-12.873,12.252c-0.183,0.174-0.421,0.27-0.667,0.27c-0.075,0-0.15-0.009-0.225-0.027
		c-0.319-0.074-0.58-0.302-0.69-0.611l-5.778-15.824c-1.738,0.32-3.286,0.441-4.634,0.441c-2.869,0-4.834-0.55-5.81-0.908
		l-5.647,6.155c-0.177,0.193-0.422,0.308-0.683,0.317c-0.011,0-0.022,0.001-0.033,0.001c-0.25,0-0.49-0.095-0.669-0.266l-4.859-4.62
		c-0.37-0.353-0.404-0.929-0.082-1.32l5.11-6.223c-1.707-2.483-2.49-5.501-2.352-8.92l-16.129-4.689
		c-0.314-0.091-0.561-0.34-0.657-0.648c-0.03-0.095-0.043-0.188-0.043-0.285c0-0.229,0.077-0.442,0.224-0.621l11.362-13.668
		c0.128-0.148,0.296-0.263,0.488-0.31l15.975-4.448c4.348-5.846,8.391-10.019,8.43-10.056
		C94.839,17.747,115.008,14.998,122.753,14.998 M122.753,1.998c-11.41,0-34.613,4.063-61.827,31.278l0.004,0.004
		c-0.934,0.951-3.659,3.858-6.883,7.877l-11.731,3.267c-2.701,0.726-5.095,2.232-6.938,4.371l-0.076,0.088l-0.074,0.089
		L23.867,62.64c-2.091,2.535-3.227,5.693-3.227,8.932c0,1.445,0.222,2.872,0.66,4.242c1.421,4.455,4.941,7.884,9.433,9.181
		l5.316,1.546c-2.776,5.393-1.774,12.195,2.777,16.53l4.868,4.628c2.585,2.471,6.013,3.844,9.626,3.844h0.212l0.246-0.007
		l0.031-0.001l0.031-0.001c3.009-0.113,5.923-1.22,8.255-3.095l1.6,4.381c1.611,4.418,5.289,7.696,9.866,8.793
		c1.067,0.257,2.164,0.387,3.261,0.387c3.596,0,7.013-1.366,9.623-3.847l12.879-12.258c2.134-2.03,3.552-4.638,4.1-7.539
		l0.012-0.062l0.011-0.062l2.104-11.767c2.782-2.619,5.55-5.475,8.266-8.53c23.02-25.87,26.457-47.161,26.457-57.549
		c0-3.59-0.401-6.008-0.64-7.13l-0.015-0.069l-0.017-0.074c-1.238-5.515-5.637-9.714-11.208-10.697
		C127.467,2.255,125.563,1.998,122.753,1.998L122.753,1.998z"/>
	<path fill="#3F51B5" d="M79.118,53.114c0.487-5.393,5.251-9.364,10.643-8.879c5.39,0.489,9.363,5.253,8.875,10.647
		c-0.489,5.39-5.253,9.364-10.644,8.874C82.602,63.265,78.628,58.501,79.118,53.114z"/>
</g>
<g>
	<g>
		<path fill="#3F51B5" d="M150.047,212.824h14.178v10.074c2.891-6.902,7.556-11.381,15.952-11.007v14.834h-0.747
			c-9.421,0-15.205,5.688-15.205,17.628v18.472h-14.178V212.824z"/>
		<path fill="#3F51B5" d="M179.615,238.105v-0.188c0-14.365,11.567-26.026,27.146-26.026c15.485,0,26.959,11.474,26.959,25.841
			v0.186c0,14.367-11.568,26.026-27.146,26.026C191.088,263.944,179.615,252.47,179.615,238.105z M219.727,238.105v-0.188
			c0-7.369-5.318-13.806-13.153-13.806c-8.115,0-12.967,6.251-12.967,13.62v0.186c0,7.369,5.318,13.806,13.154,13.806
			C214.875,251.724,219.727,245.475,219.727,238.105z"/>
		<path fill="#3F51B5" d="M235.953,238.105v-0.188c0-14.271,10.913-26.026,26.211-26.026c9.421,0,15.299,3.172,19.963,8.396
			l-8.675,9.327c-3.171-3.356-6.343-5.503-11.381-5.503c-7.089,0-12.126,6.251-12.126,13.62v0.186
			c0,7.649,4.943,13.806,12.686,13.806c4.758,0,8.022-2.052,11.474-5.316l8.303,8.395c-4.851,5.317-10.448,9.143-20.43,9.143
			C246.96,263.944,235.953,252.377,235.953,238.105z"/>
		<path fill="#3F51B5" d="M286.042,194.729h14.178v36.285l16.604-18.19h16.979l-19.031,19.682l19.683,30.319h-16.417l-12.78-20.522
			l-5.038,5.315v15.207h-14.178V194.729z"/>
		<path fill="#3F51B5" d="M330.907,238.105v-0.188c0-14.271,10.167-26.026,24.72-26.026c16.697,0,24.348,12.968,24.348,27.147
			c0,1.117-0.094,2.424-0.187,3.73h-34.794c1.399,6.436,5.876,9.794,12.22,9.794c4.758,0,8.209-1.493,12.126-5.131l8.117,7.184
			c-4.666,5.781-11.381,9.328-20.43,9.328C342.008,263.944,330.907,253.403,330.907,238.105z M366.168,233.905
			c-0.839-6.343-4.571-10.633-10.541-10.633c-5.877,0-9.701,4.196-10.82,10.633H366.168z"/>
		<path fill="#3F51B5" d="M387.246,248.646v-23.693h-5.971v-12.129h5.971v-12.78h14.18v12.78h11.753v12.129h-11.753v21.359
			c0,3.267,1.399,4.852,4.57,4.852c2.612,0,4.943-0.652,6.996-1.772v11.381c-2.985,1.772-6.436,2.891-11.194,2.891
			C393.122,263.663,387.246,260.214,387.246,248.646z"/>
		<path fill="#3F51B5" d="M420.917,197.527h7.462l23.788,35.635l23.788-35.635h7.461v65.298h-7.369v-52.893l-23.786,34.98h-0.374
			L428.1,210.026v52.799h-7.182V197.527z"/>
		<path fill="#3F51B5" d="M490.688,197.527h8.209l23.228,56.249l23.321-56.249h7.928l-28.077,65.764h-6.532L490.688,197.527z"/>
		<path fill="#3F51B5" d="M560.644,197.527h24.44c14.739,0,24.441,7.835,24.441,20.708v0.187c0,14.084-11.756,21.361-25.653,21.361
			h-15.859v23.042h-7.369V197.527z M584.151,233.068c10.821,0,17.913-5.784,17.913-14.367v-0.186c0-9.33-7-14.179-17.54-14.179
			h-16.511v28.731H584.151z"/>
	</g>
	<g>
		<g>
			<path fill="#3F51B5" d="M115.077,182.336c2.142,0,3.397,0.198,3.617,0.234c0.416,0.074,0.747,0.387,0.839,0.799
				c0.015,0.07,0.38,1.729,0.38,4.738c0,9.145-3.222,28.108-24.812,52.369c-3.75,4.214-7.554,7.997-11.312,11.249l-3.089,17.281
				c-0.041,0.219-0.147,0.415-0.308,0.569l-13.782,13.117c-0.196,0.186-0.455,0.29-0.718,0.29c-0.079,0-0.158-0.009-0.236-0.028
				c-0.341-0.08-0.62-0.324-0.74-0.657l-6.187-16.94c-1.858,0.342-3.512,0.472-4.954,0.472c-3.076,0-5.183-0.591-6.228-0.975
				l-6.046,6.593c-0.189,0.206-0.452,0.328-0.73,0.338c-0.011,0-0.022,0.001-0.033,0.001c-0.269,0-0.527-0.101-0.72-0.283
				l-5.203-4.944c-0.397-0.38-0.431-0.995-0.086-1.416l5.469-6.659c-1.826-2.661-2.664-5.892-2.517-9.553l-17.27-5.025
				c-0.336-0.098-0.601-0.358-0.703-0.694c-0.031-0.101-0.046-0.2-0.046-0.303c0-0.24,0.083-0.475,0.24-0.667l12.165-14.628
				c0.137-0.164,0.318-0.284,0.522-0.337l17.104-4.758c4.657-6.263,8.984-10.727,9.027-10.772
				C85.188,185.279,106.785,182.336,115.077,182.336 M115.077,172.66c-5.372,0-14.082,0.957-25.073,5.52
				c-12.933,5.366-25.76,14.357-38.126,26.725l-0.077,0.076l-0.073,0.079c-0.407,0.42-3.771,3.938-7.75,9.004l-13.959,3.884
				c-2.1,0.576-3.952,1.764-5.36,3.44l-0.016,0.02l-0.016,0.019l-12.165,14.629c-1.605,1.941-2.478,4.367-2.478,6.854
				c0,1.062,0.158,2.118,0.471,3.137l0,0c1.06,3.46,3.767,6.132,7.24,7.149l11.125,3.236c0.042,0.167,0.086,0.331,0.132,0.497
				l-1.702,2.07c-3.536,4.331-3.141,10.718,0.882,14.559l5.22,4.961c1.983,1.896,4.614,2.948,7.387,2.948h0.149l0.182-0.006
				c2.899-0.101,5.654-1.374,7.587-3.496l2.362-2.575c0.357,0.031,0.723,0.058,1.1,0.077l3.708,10.151
				c1.229,3.39,4.069,5.919,7.595,6.752c0.808,0.193,1.64,0.291,2.472,0.291c2.759,0,5.38-1.048,7.383-2.95l13.79-13.125
				c1.648-1.568,2.737-3.579,3.151-5.813l0.006-0.032l0.005-0.031l2.501-13.989c3.212-2.957,6.432-6.244,9.604-9.808
				c10.248-11.515,17.744-23.208,22.28-34.747c4.116-10.475,4.98-18.862,4.98-24.057c0-3.607-0.417-5.935-0.596-6.769l-0.009-0.043
				l-0.01-0.044c-0.952-4.249-4.341-7.476-8.633-8.216C119.685,172.922,117.862,172.66,115.077,172.66L115.077,172.66z"/>
		</g>
		<g>
			<circle fill="#3F51B5" cx="78.804" cy="224.092" r="10.491"/>
		</g>
	</g>
</g>
</svg>
