<?xml version="1.0" encoding="utf-8"?>
<!-- Generator: Adobe Illustrator 16.0.0, SVG Export Plug-In . SVG Version: 6.00 Build 0)  -->
<!DOCTYPE svg PUBLIC "-//W3C//DTD SVG 1.1//EN" "http://www.w3.org/Graphics/SVG/1.1/DTD/svg11.dtd">
<svg version="1.1" id="Layer_1" xmlns="http://www.w3.org/2000/svg" xmlns:xlink="http://www.w3.org/1999/xlink" x="0px" y="0px"
   width="300px" height="300px" viewBox="0 0 300 300" enable-background="new 0 0 300 300" xml:space="preserve">
<g>

    <linearGradient id="SVGID_1_" gradientUnits="userSpaceOnUse" x1="-189.2246" y1="230" x2="84.2246" y2="230" gradientTransform="matrix(1 0 0 -1 202.5 381)">
    <stop  offset="0" style="stop-color:#8A34F0"/>
    <stop  offset="1" style="stop-color:#482CFB"/>
  </linearGradient>
  <path fill="url(#SVGID_1_)" d="M273.523,13.738c5.842,0,9.267,0.543,9.871,0.644c1.131,0.194,2.037,1.049,2.289,2.167
    c0.042,0.195,1.041,4.724,1.041,12.928c0,24.938-8.791,76.666-67.677,142.842c-10.229,11.508-20.608,21.814-30.853,30.686
    l-8.43,47.128c-0.113,0.604-0.402,1.146-0.842,1.562l-37.595,35.782c-0.533,0.506-1.229,0.785-1.947,0.785
    c-0.217,0-0.438-0.029-0.656-0.08c-0.934-0.215-1.693-0.886-2.016-1.785l-16.874-46.215c-5.075,0.939-9.596,1.291-13.535,1.291
    c-8.377,0-14.116-1.603-16.966-2.649l-16.49,17.974c-0.518,0.56-1.234,0.898-1.994,0.925c-0.033,0-0.067,0-0.098,0
    c-0.729,0-1.43-0.274-1.953-0.772l-14.191-13.492c-1.08-1.031-1.18-2.715-0.24-3.857l14.923-18.172
    c-4.986-7.252-7.271-16.066-6.87-26.047l-47.102-13.697c-0.919-0.267-1.639-0.989-1.919-1.893
    c-0.088-0.273-0.126-0.549-0.126-0.832c0-0.668,0.225-1.289,0.654-1.812l33.181-39.916c0.375-0.433,0.865-0.766,1.427-0.904
    l46.652-12.99c12.697-17.073,24.506-29.261,24.62-29.37C192,21.767,250.904,13.738,273.523,13.738"/>
</g>
</svg>
